<?xml version="1.0" encoding="utf-8"?>
<!--Designed by Vexels.com - 2017 All Rights Reserved - https://vexels.com/terms-and-conditions/-->

<svg version="1.1" id="Capa_1" xmlns="http://www.w3.org/2000/svg" xmlns:xlink="http://www.w3.org/1999/xlink" x="0px" y="0px"
	 width="1200px" height="1200px" viewBox="0 0 1200 1200" enable-background="new 0 0 1200 1200" xml:space="preserve">
<g>
	<path fill="#2EBCBC" d="M1056.443,242.183c-28.74,6.114-58.447,9.39-88.842,9.39c-151.195,0-285.053-79.462-367.6-201.572
		c-82.557,122.11-216.415,201.572-367.617,201.572c-30.411,0-60.092-3.275-88.824-9.39c-13.083,136.06,4.32,283.947,56.662,428.512
		c81.67,225.639,231.141,395.4,399.779,479.306c168.645-83.905,318.092-253.667,399.772-479.306
		C1052.105,526.13,1069.525,378.242,1056.443,242.183z M936.191,647.691c-68.189,188.409-189.635,341.601-336.19,425.672
		c-146.57-84.071-268.018-237.263-336.216-425.672c-38.86-107.334-58.146-219.843-56.729-329.19
		c8.457,0.441,16.904,0.662,25.328,0.662c138.385,0,270.611-59.127,367.617-161.501c96.979,102.374,229.225,161.501,367.6,161.501
		c8.432,0,16.877-0.221,25.318-0.662C994.336,427.849,975.059,540.357,936.191,647.691z"/>
	<path fill="#454545" d="M604.807,530.436c104.314,0,201.006,20.694,280.605,55.927c20.525-65.93,33.482-134.119,38.076-201.392
		c-117.488-9.561-231.1-56.95-323.487-134.586C507.597,328.021,394,375.41,276.498,384.971
		c4.691,68.565,18.02,138.098,39.254,205.223C396.908,552.637,496.75,530.436,604.807,530.436z"/>
	<path fill="#2EBCBC" d="M604.807,595.384c-98.538,0-187.813,34.282-252.94,89.833c58.529,130.435,145.982,239.374,248.135,308.497
		C703.645,923.56,792.191,812.41,850.68,679.388C786.258,627.309,699.838,595.384,604.807,595.384z"/>
	<path fill="#454545" d="M263.786,647.691c-38.86-107.334-58.146-219.843-56.729-329.19c8.457,0.441,16.904,0.662,25.328,0.662
		c138.385,0,270.611-59.127,367.617-161.501V50c-82.557,122.11-216.415,201.572-367.617,201.572c-30.411,0-60.092-3.275-88.824-9.39
		c-13.083,136.06,4.32,283.947,56.662,428.512c81.67,225.639,231.141,395.4,399.779,479.306v-76.637
		C453.431,989.292,331.984,836.101,263.786,647.691z"/>
	<path fill="#2DAAA7" d="M351.867,685.217c58.529,130.435,145.982,239.374,248.135,308.497V595.498
		C503.39,596.579,415.931,630.583,351.867,685.217z"/>
	<path fill="#393939" d="M315.751,590.193c79.959-37.001,178.051-59.054,284.25-59.708V250.385
		C507.597,328.021,394,375.41,276.498,384.971C281.189,453.536,294.517,523.068,315.751,590.193z"/>
</g>
</svg>
